<?xml version="1.0" encoding="UTF-8"?>
<svg version="1.1" xmlns="http://www.w3.org/2000/svg" width="650" height="170">
<path d="M0 0 C9.9 0 19.8 0 30 0 C30 3.3 30 6.6 30 10 C26.7 10 23.4 10 20 10 C20 23.2 20 36.4 20 50 C23.3 50 26.6 50 30 50 C30 46.7 30 43.4 30 40 C39.9 40 49.8 40 60 40 C60 43.3 60 46.6 60 50 C63.3 50 66.6 50 70 50 C70 53.3 70 56.6 70 60 C73.3 60 76.6 60 80 60 C80 63.3 80 66.6 80 70 C83.3 70 86.6 70 90 70 C90 83.2 90 96.4 90 110 C86.7 110 83.4 110 80 110 C80 113.3 80 116.6 80 120 C76.7 120 73.4 120 70 120 C70 123.3 70 126.6 70 130 C46.9 130 23.8 130 0 130 C0 87.1 0 44.2 0 0 Z " fill="#EA7600" transform="translate(20,20)"/>
<path d="M0 0 C9.9 0 19.8 0 30 0 C30 3.3 30 6.6 30 10 C26.7 10 23.4 10 20 10 C20 49.6 20 89.2 20 130 C0.2 130 -19.6 130 -40 130 C-40 126.7 -40 123.4 -40 120 C-43.3 120 -46.6 120 -50 120 C-50 116.7 -50 113.4 -50 110 C-53.3 110 -56.6 110 -60 110 C-60 93.5 -60 77 -60 60 C-56.7 60 -53.4 60 -50 60 C-50 56.7 -50 53.4 -50 50 C-46.7 50 -43.4 50 -40 50 C-40 46.7 -40 43.4 -40 40 C-33.4 40 -26.8 40 -20 40 C-20 43.3 -20 46.6 -20 50 C-16.7 50 -13.4 50 -10 50 C-10 53.3 -10 56.6 -10 60 C-6.7 60 -3.4 60 0 60 C0 40.2 0 20.4 0 0 Z " fill="#EA7600" transform="translate(430,20)"/>
<path d="M0 0 C16.5 0 33 0 50 0 C50 3.3 50 6.6 50 10 C53.3 10 56.6 10 60 10 C60 13.3 60 16.6 60 20 C63.3 20 66.6 20 70 20 C70 33.2 70 46.4 70 60 C50.2 60 30.4 60 10 60 C10 66.6 10 73.2 10 80 C26.5 80 43 80 60 80 C60 76.7 60 73.4 60 70 C63.3 70 66.6 70 70 70 C70 76.6 70 83.2 70 90 C46.9 90 23.8 90 0 90 C0 86.7 0 83.4 0 80 C-3.3 80 -6.6 80 -10 80 C-10 56.9 -10 33.8 -10 10 C-6.7 10 -3.4 10 0 10 C0 6.7 0 3.4 0 0 Z " fill="#EA7600" transform="translate(180,60)"/>
<path d="M0 0 C6.6 0 13.2 0 20 0 C20 6.6 20 13.2 20 20 C23.3 20 26.6 20 30 20 C30 16.7 30 13.4 30 10 C33.3 10 36.6 10 40 10 C40 6.7 40 3.4 40 0 C53.2 0 66.4 0 80 0 C80 3.3 80 6.6 80 10 C83.3 10 86.6 10 90 10 C90 33.1 90 56.2 90 80 C93.3 80 96.6 80 100 80 C100 83.3 100 86.6 100 90 C90.1 90 80.2 90 70 90 C70 70.2 70 50.4 70 30 C66.7 30 63.4 30 60 30 C60 26.7 60 23.4 60 20 C53.4 20 46.8 20 40 20 C40 23.3 40 26.6 40 30 C36.7 30 33.4 30 30 30 C30 49.8 30 69.6 30 90 C23.4 90 16.8 90 10 90 C10 63.6 10 37.2 10 10 C6.7 10 3.4 10 0 10 C0 6.7 0 3.4 0 0 Z " fill="#EA7600" transform="translate(260,60)"/>
<path d="M0 0 C6.6 0 13.2 0 20 0 C20 6.6 20 13.2 20 20 C26.6 20 33.2 20 40 20 C40 23.3 40 26.6 40 30 C33.4 30 26.8 30 20 30 C20 59.7 20 89.4 20 120 C26.6 120 33.2 120 40 120 C40 123.3 40 126.6 40 130 C30.1 130 20.2 130 10 130 C10 126.7 10 123.4 10 120 C6.7 120 3.4 120 0 120 C0 90.3 0 60.6 0 30 C-6.6 30 -13.2 30 -20 30 C-20 26.7 -20 23.4 -20 20 C-13.4 20 -6.8 20 0 20 C0 13.4 0 6.8 0 0 Z " fill="#EA7600" transform="translate(600,20)"/>
<path d="M0 0 C9.9 0 19.8 0 30 0 C30 3.3 30 6.6 30 10 C26.7 10 23.4 10 20 10 C20 49.6 20 89.2 20 130 C10.1 130 0.2 130 -10 130 C-10 126.7 -10 123.4 -10 120 C-6.7 120 -3.4 120 0 120 C0 80.4 0 40.8 0 0 Z " fill="#EA7600" transform="translate(130,20)"/>
<path d="M0 0 C9.9 0 19.8 0 30 0 C30 3.3 30 6.6 30 10 C33.3 10 36.6 10 40 10 C40 23.2 40 36.4 40 50 C36.7 50 33.4 50 30 50 C30 53.3 30 56.6 30 60 C16.8 60 3.6 60 -10 60 C-10 43.5 -10 27 -10 10 C-6.7 10 -3.4 10 0 10 C0 6.7 0 3.4 0 0 Z " fill="#FFFFFF" transform="translate(50,80)"/>
<path d="M0 0 C9.9 0 19.8 0 30 0 C30 26.4 30 52.8 30 80 C33.3 80 36.6 80 40 80 C40 83.3 40 86.6 40 90 C30.1 90 20.2 90 10 90 C10 63.6 10 37.2 10 10 C6.7 10 3.4 10 0 10 C0 6.7 0 3.4 0 0 Z " fill="#EA7600" transform="translate(530,60)"/>
<path d="M0 0 C3.3 0 6.6 0 10 0 C10 3.3 10 6.6 10 10 C13.3 10 16.6 10 20 10 C20 13.3 20 16.6 20 20 C23.3 20 26.6 20 30 20 C30 33.2 30 46.4 30 60 C20.1 60 10.2 60 0 60 C0 56.7 0 53.4 0 50 C-3.3 50 -6.6 50 -10 50 C-10 36.8 -10 23.6 -10 10 C-6.7 10 -3.4 10 0 10 C0 6.7 0 3.4 0 0 Z " fill="#FFFFFF" transform="translate(400,80)"/>
<path d="M0 0 C9.9 0 19.8 0 30 0 C30 9.9 30 19.8 30 30 C20.1 30 10.2 30 0 30 C0 20.1 0 10.2 0 0 Z " fill="#265787" transform="translate(480,120)"/>
<path d="M0 0 C9.9 0 19.8 0 30 0 C30 9.9 30 19.8 30 30 C20.1 30 10.2 30 0 30 C0 20.1 0 10.2 0 0 Z " fill="#265787" transform="translate(480,20)"/>
<path d="M0 0 C13.2 0 26.4 0 40 0 C40 6.6 40 13.2 40 20 C26.8 20 13.6 20 0 20 C0 13.4 0 6.8 0 0 Z " fill="#FFFFFF" transform="translate(190,80)"/>
<path d="M0 0 C6.6 0 13.2 0 20 0 C20 6.6 20 13.2 20 20 C13.4 20 6.8 20 0 20 C0 13.4 0 6.8 0 0 Z " fill="#EA7600" transform="translate(540,30)"/>
</svg>
